<svg height="200px" width="200px" version="1.1" id="Capa_1" xmlns="http://www.w3.org/2000/svg" xmlns:xlink="http://www.w3.org/1999/xlink" viewBox="0 0 41.384 41.384" xml:space="preserve" fill="#fff"><g id="SVGRepo_bgCarrier" stroke-width="0"></g><g id="SVGRepo_tracerCarrier" stroke-linecap="round" stroke-linejoin="round"></g><g id="SVGRepo_iconCarrier"> <g> <g id="b156_barbecue"> <path style="fill:#fff;" d="M2.185,17.613c0,7.35,5.979,13.332,13.327,13.332c7.351,0,13.33-5.982,13.33-13.332v-0.645H2.185 V17.613z M15.512,29.648c-5.282,0-9.776-3.43-11.39-8.174H26.9C25.291,26.219,20.799,29.648,15.512,29.648z M27.53,18.262 c-0.043,0.758-0.157,1.498-0.331,2.211H3.83c-0.174-0.713-0.293-1.453-0.332-2.211H27.53z"></path> <path style="fill:#fff;" d="M25.938,30.934c-0.323-0.74-1.192-1.078-1.93-0.752c-0.742,0.326-1.08,1.188-0.755,1.932 l2.778,6.332c0.325,0.738,1.189,1.078,1.93,0.752c0.741-0.324,1.078-1.189,0.756-1.93L25.938,30.934z"></path> <path style="fill:#fff;" d="M7.73,30.182c-0.741-0.326-1.605,0.012-1.93,0.752l-2.777,6.334 c-0.323,0.74,0.013,1.605,0.752,1.93c0.742,0.326,1.605-0.014,1.931-0.752l2.78-6.332C8.81,31.369,8.472,30.508,7.73,30.182z"></path> <path style="fill:#fff;" d="M15.997,32.48c-0.715,0-1.294,0.58-1.294,1.293v6.316c0,0.715,0.579,1.295,1.294,1.295 s1.293-0.58,1.293-1.295v-6.316C17.29,33.061,16.712,32.48,15.997,32.48z"></path> <path style="fill:#fff;" d="M20.578,11.658c-0.038-0.18-0.089-0.359-0.176-0.545c-0.161-0.367-0.4-0.734-0.858-1.105h-0.132 l-0.045,1.65h-3.532v-0.65c0.004-0.199-0.003-0.402,0.005-0.605c-0.193-0.203-0.382-0.406-0.65-0.607 c-0.27,0.201-0.46,0.404-0.655,0.607c0.014,0.203,0.004,0.406,0.006,0.605v0.65h-3.028c-0.063-0.621-0.218-1.242-0.614-1.863 c-0.396,0.621-0.549,1.242-0.613,1.863h-2.64v1.127h2.643c0.062,0.627,0.221,1.246,0.61,1.867c0.392-0.621,0.551-1.24,0.612-1.867 h3.029v0.652v0.607c0.196,0.201,0.39,0.402,0.649,0.607c0.258-0.205,0.45-0.406,0.646-0.607v-0.607v-0.652h3.531l0.045,1.652 h0.132c0.457-0.369,0.693-0.738,0.854-1.105c0.087-0.184,0.142-0.361,0.177-0.547h18.625v-1.127 C39.199,11.658,20.578,11.658,20.578,11.658z"></path> <path style="fill:#fff;" d="M13.588,8.062c0.252-1.721,0.492-3.5,1.484-4.412c0.462-0.488,1.306-0.764,2.144-0.654 c0.842,0.105,1.627,0.502,2.339,0.967c0.705,0.5,1.504,0.994,2.384,1.289c0.864,0.291,1.895,0.582,3.008,0.119 c0.537-0.25,0.996-0.711,1.211-1.217c0.231-0.504,0.302-1.012,0.303-1.492C26.448,1.699,26.21,0.812,25.795,0l-0.123,0.035 c-0.008,0.881-0.038,1.748-0.226,2.52c-0.179,0.785-0.529,1.381-1.052,1.549c-0.523,0.217-1.325,0.176-2.107-0.018 c-0.791-0.209-1.569-0.471-2.418-0.76c-0.858-0.283-1.709-0.535-2.581-0.744c-0.849-0.197-1.902-0.387-2.86,0.203 c-0.93,0.609-1.279,1.688-1.364,2.6c-0.091,0.938,0.057,1.855,0.397,2.699L13.588,8.062z"></path> </g> </g> </g></svg>